<?xml version="1.0"?>
<svg xmlns="http://www.w3.org/2000/svg" id="Layer_1" data-name="Layer 1" viewBox="0 0 64 64"><title>Dusk Part 1</title><path d="M61,55.38a1,1,0,0,1-1,1H4a1,1,0,0,1-1-1v-8A9.37,9.37,0,0,1,8.3,39l14.07-6.73c2.55,3.21,5.91,5.5,9.63,5.5s7.08-2.29,9.63-5.5L55.7,39A9.37,9.37,0,0,1,61,47.41Z" style="fill:#72caaf;"/><path d="M32,41c4.1,0,7.82-2.12,10.57-5.56a2,2,0,0,0-.7-3.06l-.23-.11c-2.55,3.21-5.91,5.5-9.63,5.5s-7.08-2.29-9.63-5.5l-.23.11a2,2,0,0,0-.7,3.06C24.18,38.88,27.9,41,32,41Z" style="fill:#7dd8ba;"/><path d="M19,17.75a13,13,0,0,1,26,0v2.17c0,7.64-6.12,17.33-13,17.33S19,27.56,19,19.92Z" style="fill:#faefde;"/><path d="M57,52H7a4,4,0,0,0-4,4H3a1,1,0,0,0,1,1H60a1,1,0,0,0,1-1h0A4,4,0,0,0,57,52Z" style="fill:#66bfa1;"/><path d="M55.75,37.38,42.49,31A21.78,21.78,0,0,0,46,20V18a14,14,0,0,0-28,0v2a21.78,21.78,0,0,0,3.51,11L8.25,37.38A11.06,11.06,0,0,0,2,47.3V55a3,3,0,0,0,3,3H59a3,3,0,0,0,3-3V47.3A11.06,11.06,0,0,0,55.75,37.38ZM20,18a12,12,0,0,1,24,0v2c0,7.05-5.65,16-12,16S20,27.05,20,20ZM60,55a1,1,0,0,1-1,1H5a1,1,0,0,1-1-1V47.3a9,9,0,0,1,5.12-8.12L22.68,32.7C25.1,35.79,28.32,38,32,38s6.9-2.21,9.32-5.3l13.56,6.49A9,9,0,0,1,60,47.3Z" style="fill:#8d6c9f;"/><path d="M47,50a1,1,0,0,0-1,1v2a1,1,0,0,0,2,0V51A1,1,0,0,0,47,50Z" style="fill:#8d6c9f;"/><path d="M52,50a1,1,0,0,0-1,1v2a1,1,0,0,0,2,0V51A1,1,0,0,0,52,50Z" style="fill:#8d6c9f;"/><path d="M56,51v2a1,1,0,0,0,2,0V51a1,1,0,0,0-2,0Z" style="fill:#8d6c9f;"/><path d="M42,50a1,1,0,0,0-1,1v2a1,1,0,0,0,2,0V51A1,1,0,0,0,42,50Z" style="fill:#8d6c9f;"/><path d="M37,50a1,1,0,0,0-1,1v2a1,1,0,0,0,2,0V51A1,1,0,0,0,37,50Z" style="fill:#8d6c9f;"/><path d="M32,50a1,1,0,0,0-1,1v2a1,1,0,0,0,2,0V51A1,1,0,0,0,32,50Z" style="fill:#8d6c9f;"/><path d="M27,50a1,1,0,0,0-1,1v2a1,1,0,0,0,2,0V51A1,1,0,0,0,27,50Z" style="fill:#8d6c9f;"/><path d="M22,50a1,1,0,0,0-1,1v2a1,1,0,0,0,2,0V51A1,1,0,0,0,22,50Z" style="fill:#8d6c9f;"/><path d="M17,50a1,1,0,0,0-1,1v2a1,1,0,0,0,2,0V51A1,1,0,0,0,17,50Z" style="fill:#8d6c9f;"/><path d="M12,50a1,1,0,0,0-1,1v2a1,1,0,0,0,2,0V51A1,1,0,0,0,12,50Z" style="fill:#8d6c9f;"/><path d="M7,50a1,1,0,0,0-1,1v2a1,1,0,0,0,2,0V51A1,1,0,0,0,7,50Z" style="fill:#8d6c9f;"/><path d="M37,44H27a1,1,0,0,0,0,2H37a1,1,0,0,0,0-2Z" style="fill:#faefde;"/></svg>
